<svg width="200" height="200" viewBox="0 0 200 200" fill="none" xmlns="http://www.w3.org/2000/svg">
<circle cx="100" cy="100" r="100" fill="white"/>
<path d="M84.1102 140.203C83.6101 139.603 83.0099 139.103 82.3098 138.903C81.6096 138.603 80.8094 138.603 80.0092 138.803C79.209 139.003 78.5088 139.303 77.9087 139.903C77.4085 140.403 77.0084 141.103 76.8084 141.903C76.6083 142.703 76.6083 143.503 76.8084 144.303C77.0084 145.203 77.3085 145.903 77.8086 146.603C78.3088 147.203 78.9089 147.703 79.6091 148.003C80.3093 148.303 81.1095 148.303 81.9097 148.103C82.7099 147.903 83.41 147.603 83.9102 147.003C84.4103 146.503 84.8104 145.803 84.9104 145.003C85.1105 144.203 85.1105 143.403 84.9104 142.503C84.9104 141.503 84.6103 140.803 84.1102 140.203Z" fill="#5FBFBE"/>
<path d="M122.02 132.002C121.52 131.402 120.919 130.902 120.219 130.702C119.519 130.402 118.719 130.402 117.919 130.602C117.118 130.802 116.418 131.102 115.818 131.702C115.318 132.202 114.918 132.902 114.718 133.702C114.518 134.502 114.518 135.302 114.718 136.102C114.918 137.002 115.218 137.702 115.718 138.402C116.218 139.002 116.818 139.502 117.519 139.802C118.219 140.102 119.019 140.102 119.819 139.902C120.619 139.702 121.32 139.402 121.82 138.802C122.32 138.302 122.72 137.602 122.82 136.802C122.92 136.002 123.02 135.202 122.82 134.302C122.82 133.402 122.42 132.602 122.02 132.002Z" fill="#5FBFBE"/>
<path d="M197.739 78.8971C186.136 24.8917 132.922 -9.41176 78.9089 2.28941C24.8954 13.8906 -9.41317 67.0959 2.28975 121.101C13.8927 175.107 67.106 209.41 121.119 197.709C175.133 186.008 209.342 132.902 197.739 78.8971ZM150.027 92.0984C152.227 91.5983 154.328 91.9984 156.328 93.2985C158.329 94.5986 159.529 96.3988 160.029 98.6991C160.329 100.199 160.229 101.599 159.829 103.099C159.329 104.5 158.529 105.7 157.429 106.8C156.328 107.8 155.028 108.5 153.428 108.8C151.227 109.3 149.126 108.9 147.126 107.6C145.125 106.3 143.925 104.5 143.425 102.199C142.925 99.9992 143.325 97.899 144.625 95.8988C145.926 93.7986 147.726 92.5984 150.027 92.0984ZM48.8014 119.101C45.8006 115.801 43.8001 111.6 42.6999 106.5L34.8979 70.2962L49.2015 67.1959L57.2035 104.2C57.7036 106.4 58.6038 108.4 59.9042 110C61.2045 111.6 62.8049 112.8 64.8054 113.401C66.7059 114.101 68.9064 114.201 71.207 113.701C73.5076 113.201 75.408 112.2 76.9084 110.8C78.3088 109.4 79.309 107.7 79.9092 105.7C80.5093 103.7 80.5093 101.599 80.0092 99.2991L72.0072 62.2954L99.8141 56.2948L123.72 99.7992C123.92 100.099 124.12 100.299 124.32 100.499C124.52 100.599 124.82 100.699 125.12 100.599C125.421 100.499 125.621 100.399 125.821 100.199C126.021 99.9992 126.121 99.6991 126.121 99.2991L130.222 49.6941L145.426 46.3938L138.724 103.5C138.324 106.4 137.123 108.7 135.223 110.5C133.323 112.3 130.922 113.501 128.121 114.101C125.321 114.701 122.62 114.601 120.119 113.801C117.619 113 115.618 111.3 114.018 108.8L87.5111 64.8957L94.1127 95.3987C95.213 100.599 95.113 105.2 93.7126 109.4C92.3123 113.601 89.9117 117.101 86.5108 119.901C83.11 122.701 78.9089 124.702 73.9077 125.802C68.9064 126.902 64.3053 126.802 60.0042 125.702C55.403 124.602 51.7021 122.401 48.8014 119.101ZM64.1052 156.205C62.6048 156.505 61.2045 156.505 59.9042 156.005C58.6038 155.605 57.6036 154.905 56.7034 153.905C55.8031 152.904 55.303 151.804 55.0029 150.404L51.402 133.503L57.2035 132.202L60.9044 149.504C61.0044 150.104 61.3045 150.504 61.8046 150.804C62.3048 151.104 62.8049 151.204 63.405 151.104L69.8066 149.704L70.8069 154.605L64.1052 156.205ZM87.211 151.304L86.6108 148.504H86.5108C86.3108 149.204 86.0107 149.804 85.6106 150.504C85.2105 151.104 84.7104 151.604 84.0102 152.104C83.31 152.504 82.5098 152.904 81.5096 153.104C79.9092 153.405 78.5088 153.305 77.1085 152.804C75.7081 152.304 74.6078 151.404 73.6076 150.104C72.6073 148.904 72.0072 147.404 71.6071 145.704C71.207 143.904 71.307 142.203 71.7071 140.603C72.2072 139.003 73.1075 137.603 74.3078 136.503C75.6081 135.403 77.2085 134.603 79.109 134.103C81.1095 133.703 82.9099 133.703 84.4103 134.203C86.0107 134.703 87.311 135.603 88.3113 136.903C89.3115 138.203 90.1117 139.703 90.5118 141.403L92.4123 150.204L87.211 151.304ZM103.715 147.704C102.115 148.104 100.714 147.904 99.5141 147.104C98.4138 146.404 97.6136 145.204 97.3135 143.604L95.5131 135.403L92.6123 136.003L91.7121 131.602L94.6128 131.002L93.7126 126.702L99.114 125.502L100.014 129.802L104.915 128.702L105.816 133.102L100.914 134.203L102.615 142.103C102.715 142.403 102.815 142.603 103.015 142.703C103.215 142.903 103.515 142.903 103.815 142.803L107.716 142.003L108.716 146.504L103.715 147.704ZM125.12 143.103L124.52 140.303H124.42C124.22 141.003 123.92 141.603 123.52 142.303C123.12 142.903 122.62 143.404 121.92 143.904C121.219 144.304 120.419 144.704 119.419 144.904C117.819 145.204 116.418 145.104 115.018 144.604C113.618 144.104 112.517 143.203 111.517 141.903C110.517 140.703 109.917 139.203 109.517 137.503C109.116 135.703 109.216 134.003 109.617 132.402C110.117 130.802 111.017 129.402 112.217 128.302C113.518 127.202 115.118 126.402 117.018 125.902C119.019 125.502 120.819 125.502 122.32 126.002C123.92 126.502 125.22 127.402 126.221 128.702C127.321 130.002 128.021 131.502 128.421 133.202L130.322 142.003L125.12 143.103ZM158.829 135.803L156.628 125.502C156.528 124.902 156.228 124.402 155.828 124.002C155.428 123.602 154.928 123.302 154.428 123.101C153.828 122.901 153.328 122.901 152.627 123.001C152.027 123.101 151.427 123.402 151.027 123.802C150.627 124.202 150.327 124.702 150.127 125.202C149.927 125.702 149.927 126.302 150.027 126.902L152.227 137.203L146.826 138.403L144.625 128.102C144.525 127.502 144.225 127.002 143.825 126.602C143.425 126.202 142.925 125.902 142.425 125.702C141.825 125.502 141.224 125.502 140.624 125.602C140.024 125.702 139.424 126.002 139.024 126.402C138.624 126.802 138.324 127.302 138.124 127.802C137.924 128.302 137.924 128.902 138.024 129.502L140.224 139.803L134.823 141.003L132.522 130.502C132.222 129.002 132.222 127.702 132.722 126.302C133.122 125.002 133.923 123.902 135.023 122.901C136.123 122.001 137.624 121.301 139.324 120.901C140.224 120.701 141.024 120.601 141.825 120.701C142.625 120.701 143.325 120.901 144.025 121.101C144.725 121.301 145.326 121.601 145.826 122.001H145.926C146.326 121.401 146.726 120.901 147.326 120.501C147.826 120.001 148.526 119.601 149.226 119.301C149.927 118.901 150.727 118.701 151.627 118.501C153.428 118.101 154.928 118.101 156.428 118.501C157.829 118.901 159.029 119.601 159.929 120.601C160.829 121.601 161.53 122.901 161.83 124.302L164.13 134.803L158.829 135.803Z" fill="#5FBFBE"/>
</svg>
