<?xml version="1.0" standalone="no"?>
<!DOCTYPE svg PUBLIC "-//W3C//DTD SVG 20010904//EN"
 "http://www.w3.org/TR/2001/REC-SVG-20010904/DTD/svg10.dtd">
<svg version="1.0" xmlns="http://www.w3.org/2000/svg"
 width="400.000000pt" height="400.000000pt" viewBox="0 0 400.000000 400.000000"
 preserveAspectRatio="xMidYMid meet">
<metadata>
Created by potrace 1.14, written by Peter Selinger 2001-2017
</metadata>
<g transform="translate(0.000000,400.000000) scale(0.100000,-0.100000)"
fill="#000000" stroke="none">
<path d="M1845 3994 c-319 -37 -542 -102 -783 -230 -176 -93 -298 -181 -446
-324 -646 -624 -800 -1584 -380 -2378 93 -176 181 -298 324 -446 511 -529
1246 -734 1958 -545 662 175 1196 693 1396 1350 60 199 80 344 80 579 0 219
-11 312 -60 505 -64 250 -188 505 -353 720 -64 85 -232 256 -321 328 -358 289
-822 451 -1272 446 -62 -1 -126 -4 -143 -5z m1060 -961 c-3 -21 -35 -284 -70
-585 -48 -409 -69 -559 -83 -591 -66 -148 -311 -196 -426 -83 -27 26 -136 197
-301 471 -142 237 -261 434 -266 439 -4 4 -3 -11 2 -35 144 -638 154 -711 114
-834 -64 -197 -259 -329 -505 -342 -163 -9 -291 37 -385 139 -91 99 -105 138
-200 577 -47 217 -85 397 -85 400 0 6 243 61 271 61 11 0 33 -87 93 -367 85
-399 109 -472 167 -515 131 -97 320 -36 364 117 20 67 24 42 -76 504 -43 201
-78 365 -76 366 1 1 125 28 275 60 161 34 276 54 281 49 5 -5 116 -204 246
-441 131 -238 244 -433 251 -433 7 0 16 5 19 10 4 6 24 223 46 483 21 260 40
483 41 497 3 24 11 27 143 57 77 17 146 32 153 32 9 1 11 -10 7 -36z m223
-900 c49 -36 72 -81 72 -140 0 -98 -56 -160 -152 -169 -150 -14 -239 160 -141
277 15 17 41 38 58 45 42 20 129 13 163 -13z m-3 -504 c48 -13 91 -51 104 -93
16 -50 53 -227 48 -232 -2 -3 -26 -7 -53 -10 l-49 -6 -23 108 c-24 116 -41
144 -88 144 -30 0 -64 -33 -64 -62 0 -13 9 -61 20 -108 27 -119 28 -116 -31
-127 -36 -8 -52 -7 -54 1 -2 6 -13 56 -25 111 -22 106 -40 135 -86 135 -28 0
-64 -36 -64 -64 0 -12 9 -59 20 -106 27 -118 28 -115 -27 -128 -27 -6 -51 -8
-54 -4 -11 12 -49 201 -49 245 0 24 8 56 20 74 36 60 142 95 210 70 33 -12 37
-11 70 15 29 23 82 43 125 47 6 0 28 -4 50 -10z m-1134 -178 c9 -44 13 -46 63
-34 l45 10 6 -38 c8 -49 4 -56 -45 -64 -22 -4 -40 -12 -40 -18 1 -7 9 -46 19
-87 18 -80 16 -79 85 -66 33 6 33 6 40 -35 4 -23 5 -44 2 -46 -2 -2 -30 -11
-61 -19 -106 -28 -143 -2 -170 124 -25 119 -23 114 -55 107 -25 -5 -28 -3 -34
26 -10 50 -8 56 19 63 23 6 24 10 19 50 l-6 44 43 10 c58 13 62 11 70 -27z
m476 20 c60 -28 88 -77 116 -203 l24 -106 -43 -11 c-58 -15 -61 -14 -68 12 -6
22 -6 22 -23 -5 -34 -54 -122 -74 -188 -42 -90 42 -127 193 -69 282 26 40 54
60 104 76 61 20 98 19 147 -3z m-1284 -298 c21 -97 43 -181 50 -185 11 -8 47
-6 128 8 37 6 37 6 44 -36 4 -23 3 -45 -1 -50 -18 -16 -155 -42 -189 -36 -42
8 -89 46 -103 83 -9 23 -82 351 -82 368 0 7 61 23 91 24 25 1 26 -1 62 -176z
m532 131 c51 -24 83 -82 109 -197 13 -56 20 -105 17 -109 -4 -4 -28 -11 -54
-14 -43 -6 -47 -5 -47 15 0 27 -13 27 -25 -1 -17 -37 -59 -60 -111 -61 -63 -1
-107 23 -142 75 -23 36 -27 51 -27 118 0 68 3 81 27 112 54 71 174 100 253 62z"/>
<path d="M2318 1360 c-26 -26 -30 -36 -25 -67 12 -70 54 -103 112 -89 29 7 55
52 55 95 0 17 -11 42 -26 60 -35 42 -75 42 -116 1z"/>
<path d="M1584 1216 c-41 -18 -60 -64 -45 -108 17 -50 39 -68 82 -68 77 0 109
102 50 161 -33 32 -43 34 -87 15z"/>
</g>
</svg>
